# Wavefront OBJ file automatically generated by Tiled2Unity

# Vertices (Count = 121)
v 0 -0.32 0
v -0.32 -0.32 0
v -0.32 0 0
v 0 0 0
v -0.64 -0.32 0
v -0.64 0 0
v -0.96 -0.32 0
v -0.96 0 0
v -1.28 -0.32 0
v -1.28 0 0
v -1.6 -0.32 0
v -1.6 0 0
v -1.92 -0.32 0
v -1.92 0 0
v -2.24 -0.32 0
v -2.24 0 0
v -2.56 -0.32 0
v -2.56 0 0
v -2.88 -0.32 0
v -2.88 0 0
v -3.2 -0.32 0
v -3.2 0 0
v 0 -0.64 0
v -0.32 -0.64 0
v -2.88 -0.64 0
v -3.2 -0.64 0
v 0 -0.96 0
v -0.32 -0.96 0
v -2.88 -0.96 0
v -3.2 -0.96 0
v 0 -1.28 0
v -0.32 -1.28 0
v -2.88 -1.28 0
v -3.2 -1.28 0
v 0 -1.6 0
v -0.32 -1.6 0
v -2.88 -1.6 0
v -3.2 -1.6 0
v 0 -1.92 0
v -0.32 -1.92 0
v -2.88 -1.92 0
v -3.2 -1.92 0
v 0 -2.24 0
v -0.32 -2.24 0
v -2.88 -2.24 0
v -3.2 -2.24 0
v 0 -2.56 0
v -0.32 -2.56 0
v -2.88 -2.56 0
v -3.2 -2.56 0
v 0 -2.88 0
v -0.32 -2.88 0
v -2.88 -2.88 0
v -3.2 -2.88 0
v 0 -3.2 0
v -0.32 -3.2 0
v -0.64 -3.2 0
v -0.64 -2.88 0
v -0.96 -3.2 0
v -0.96 -2.88 0
v -1.28 -3.2 0
v -1.28 -2.88 0
v -1.92 -3.2 0
v -2.24 -3.2 0
v -2.24 -2.88 0
v -1.92 -2.88 0
v -2.56 -3.2 0
v -2.56 -2.88 0
v -2.88 -3.2 0
v -3.2 -3.2 0
v -0.64 -0.64 0
v -0.96 -0.64 0
v -1.28 -0.64 0
v -1.6 -0.64 0
v -1.92 -0.64 0
v -2.24 -0.64 0
v -2.56 -0.64 0
v -0.64 -0.96 0
v -0.96 -0.96 0
v -1.28 -0.96 0
v -1.6 -0.96 0
v -1.92 -0.96 0
v -2.24 -0.96 0
v -2.56 -0.96 0
v -0.64 -1.28 0
v -0.96 -1.28 0
v -1.28 -1.28 0
v -1.6 -1.28 0
v -1.92 -1.28 0
v -2.24 -1.28 0
v -2.56 -1.28 0
v -0.64 -1.6 0
v -0.96 -1.6 0
v -1.28 -1.6 0
v -1.6 -1.6 0
v -1.92 -1.6 0
v -2.24 -1.6 0
v -2.56 -1.6 0
v -0.64 -1.92 0
v -0.96 -1.92 0
v -1.28 -1.92 0
v -1.6 -1.92 0
v -1.92 -1.92 0
v -2.24 -1.92 0
v -2.56 -1.92 0
v -0.64 -2.24 0
v -0.96 -2.24 0
v -1.28 -2.24 0
v -1.6 -2.24 0
v -1.92 -2.24 0
v -2.24 -2.24 0
v -2.56 -2.24 0
v -0.64 -2.56 0
v -0.96 -2.56 0
v -1.28 -2.56 0
v -1.6 -2.56 0
v -1.92 -2.56 0
v -2.24 -2.56 0
v -2.56 -2.56 0
v -1.6 -2.88 0
v -1.6 -3.2 0

# Texture cooridinates (Count = 112)
vt 1.220703E-05 0.5000122
vt 0.09998779 0.5000122
vt 0.09998779 0.5999878
vt 1.220703E-05 0.5999878
vt 0.333374 0.5000204
vt 0.666626 0.5000204
vt 0.666626 0.6666464
vt 0.333374 0.6666464
vt 4.069011E-05 2.032518E-05
vt 0.3332926 2.032518E-05
vt 0.3332926 0.1666463
vt 4.069011E-05 0.1666463
vt 0.6667073 2.032518E-05
vt 0.9999593 2.032518E-05
vt 0.9999593 0.1666463
vt 0.6667073 0.1666463
vt 0.333374 2.032518E-05
vt 0.666626 2.032518E-05
vt 0.666626 0.1666463
vt 0.333374 0.1666463
vt 6.103516E-05 0.6667074
vt 0.499939 0.6667074
vt 0.499939 0.9999593
vt 6.103516E-05 0.9999593
vt 0.500061 3.051758E-05
vt 0.999939 3.051758E-05
vt 0.999939 0.2499695
vt 0.500061 0.2499695
vt 0.166687 0.9230863
vt 0.333313 0.9230863
vt 0.333313 0.9999906
vt 0.166687 0.9999906
vt 0.166687 0.8461633
vt 0.333313 0.8461633
vt 0.333313 0.9230675
vt 0.166687 0.9230675
vt 0.166687 0.7692401
vt 0.333313 0.7692401
vt 0.333313 0.8461444
vt 0.166687 0.8461444
vt 0.666687 0.9230863
vt 0.833313 0.9230863
vt 0.833313 0.9999906
vt 0.666687 0.9999906
vt 2.441406E-05 0.7500305
vt 0.1999756 0.7500305
vt 0.1999756 0.9999695
vt 2.441406E-05 0.9999695
vt 0.2000244 0.7500305
vt 0.3999756 0.7500305
vt 0.3999756 0.9999695
vt 0.2000244 0.9999695
vt 2.441406E-05 0.5000305
vt 0.1999756 0.5000305
vt 0.1999756 0.7499695
vt 2.441406E-05 0.7499695
vt 0.2000244 0.5000305
vt 0.3999756 0.5000305
vt 0.3999756 0.7499695
vt 0.2000244 0.7499695
vt 0.8000244 0.2500305
vt 0.9999756 0.2500305
vt 0.9999756 0.4999695
vt 0.8000244 0.4999695
vt 2.441406E-05 0.2500305
vt 0.1999756 0.2500305
vt 0.1999756 0.4999695
vt 2.441406E-05 0.4999695
vt 0.2000244 0.2500305
vt 0.3999756 0.2500305
vt 0.3999756 0.4999695
vt 0.2000244 0.4999695
vt 0.8000244 3.051758E-05
vt 0.9999756 3.051758E-05
vt 0.9999756 0.2499695
vt 0.8000244 0.2499695
vt 0.3636475 0.8000244
vt 0.4545344 0.8000244
vt 0.4545344 0.9999756
vt 0.3636475 0.9999756
vt 0.4545566 0.8000244
vt 0.5454435 0.8000244
vt 0.5454435 0.9999756
vt 0.4545566 0.9999756
vt 0.3636475 0.6000244
vt 0.4545344 0.6000244
vt 0.4545344 0.7999756
vt 0.3636475 0.7999756
vt 0.4545566 0.6000244
vt 0.5454435 0.6000244
vt 0.5454435 0.7999756
vt 0.4545566 0.7999756
vt 0.3636475 0.4000244
vt 0.4545344 0.4000244
vt 0.4545344 0.5999756
vt 0.3636475 0.5999756
vt 0.4545566 0.4000244
vt 0.5454435 0.4000244
vt 0.5454435 0.5999756
vt 0.4545566 0.5999756
vt 0.3636475 0.2000244
vt 0.4545344 0.2000244
vt 0.4545344 0.3999756
vt 0.3636475 0.3999756
vt 0.3636475 2.44379E-05
vt 0.4545344 2.44379E-05
vt 0.4545344 0.1999756
vt 0.3636475 0.1999756
vt 0.0001220703 0.0001220703
vt 0.9998779 0.0001220703
vt 0.9998779 0.9998779
vt 0.0001220703 0.9998779

# Normal
vn 0 0 -1

# Groups (Count = 4)

g mesh_0001
f 1/1/1 2/2/1 3/3/1 4/4/1
f 2/1/1 5/2/1 6/3/1 3/4/1
f 5/1/1 7/2/1 8/3/1 6/4/1
f 7/1/1 9/2/1 10/3/1 8/4/1
f 9/1/1 11/2/1 12/3/1 10/4/1
f 11/1/1 13/2/1 14/3/1 12/4/1
f 13/1/1 15/2/1 16/3/1 14/4/1
f 15/1/1 17/2/1 18/3/1 16/4/1
f 17/1/1 19/2/1 20/3/1 18/4/1
f 19/1/1 21/2/1 22/3/1 20/4/1
f 23/1/1 24/2/1 2/3/1 1/4/1
f 25/1/1 26/2/1 21/3/1 19/4/1
f 27/1/1 28/2/1 24/3/1 23/4/1
f 29/1/1 30/2/1 26/3/1 25/4/1
f 31/1/1 32/2/1 28/3/1 27/4/1
f 33/1/1 34/2/1 30/3/1 29/4/1
f 35/1/1 36/2/1 32/3/1 31/4/1
f 37/1/1 38/2/1 34/3/1 33/4/1
f 39/1/1 40/2/1 36/3/1 35/4/1
f 41/1/1 42/2/1 38/3/1 37/4/1
f 43/1/1 44/2/1 40/3/1 39/4/1
f 45/1/1 46/2/1 42/3/1 41/4/1
f 47/1/1 48/2/1 44/3/1 43/4/1
f 49/1/1 50/2/1 46/3/1 45/4/1
f 51/1/1 52/2/1 48/3/1 47/4/1
f 53/1/1 54/2/1 50/3/1 49/4/1
f 55/1/1 56/2/1 52/3/1 51/4/1
f 56/1/1 57/2/1 58/3/1 52/4/1
f 57/1/1 59/2/1 60/3/1 58/4/1
f 59/1/1 61/2/1 62/3/1 60/4/1
f 63/1/1 64/2/1 65/3/1 66/4/1
f 64/1/1 67/2/1 68/3/1 65/4/1
f 67/1/1 69/2/1 53/3/1 68/4/1
f 69/1/1 70/2/1 54/3/1 53/4/1

g mesh_0002
f 24/5/1 71/6/1 5/7/1 2/8/1
f 71/9/1 72/10/1 7/11/1 5/12/1
f 72/5/1 73/6/1 9/7/1 7/8/1
f 73/5/1 74/6/1 11/7/1 9/8/1
f 74/5/1 75/6/1 13/7/1 11/8/1
f 75/5/1 76/6/1 15/7/1 13/8/1
f 76/5/1 77/6/1 17/7/1 15/8/1
f 77/13/1 25/14/1 19/15/1 17/16/1
f 28/5/1 78/6/1 71/7/1 24/8/1
f 78/5/1 79/6/1 72/7/1 71/8/1
f 79/5/1 80/6/1 73/7/1 72/8/1
f 80/5/1 81/6/1 74/7/1 73/8/1
f 81/5/1 82/6/1 75/7/1 74/8/1
f 82/5/1 83/6/1 76/7/1 75/8/1
f 83/5/1 84/6/1 77/7/1 76/8/1
f 84/5/1 29/6/1 25/7/1 77/8/1
f 32/5/1 85/6/1 78/7/1 28/8/1
f 85/5/1 86/6/1 79/7/1 78/8/1
f 86/5/1 87/6/1 80/7/1 79/8/1
f 87/17/1 88/18/1 81/19/1 80/20/1
f 88/5/1 89/6/1 82/7/1 81/8/1
f 89/5/1 90/6/1 83/7/1 82/8/1
f 90/9/1 91/10/1 84/11/1 83/12/1
f 91/5/1 33/6/1 29/7/1 84/8/1
f 36/5/1 92/6/1 85/7/1 32/8/1
f 92/5/1 93/6/1 86/7/1 85/8/1
f 93/5/1 94/6/1 87/7/1 86/8/1
f 94/5/1 95/6/1 88/7/1 87/8/1
f 95/5/1 96/6/1 89/7/1 88/8/1
f 96/5/1 97/6/1 90/7/1 89/8/1
f 97/5/1 98/6/1 91/7/1 90/8/1
f 98/5/1 37/6/1 33/7/1 91/8/1
f 40/5/1 99/6/1 92/7/1 36/8/1
f 99/13/1 100/14/1 93/15/1 92/16/1
f 100/5/1 101/6/1 94/7/1 93/8/1
f 101/5/1 102/6/1 95/7/1 94/8/1
f 102/5/1 103/6/1 96/7/1 95/8/1
f 103/5/1 104/6/1 97/7/1 96/8/1
f 104/5/1 105/6/1 98/7/1 97/8/1
f 105/5/1 41/6/1 37/7/1 98/8/1
f 44/5/1 106/6/1 99/7/1 40/8/1
f 106/5/1 107/6/1 100/7/1 99/8/1
f 107/5/1 108/6/1 101/7/1 100/8/1
f 108/5/1 109/6/1 102/7/1 101/8/1
f 109/5/1 110/6/1 103/7/1 102/8/1
f 110/5/1 111/6/1 104/7/1 103/8/1
f 111/5/1 112/6/1 105/7/1 104/8/1
f 112/17/1 45/18/1 41/19/1 105/20/1
f 48/5/1 113/6/1 106/7/1 44/8/1
f 113/9/1 114/10/1 107/11/1 106/12/1
f 114/5/1 115/6/1 108/7/1 107/8/1
f 115/5/1 116/6/1 109/7/1 108/8/1
f 116/5/1 117/6/1 110/7/1 109/8/1
f 117/5/1 118/6/1 111/7/1 110/8/1
f 118/5/1 119/6/1 112/7/1 111/8/1
f 119/5/1 49/6/1 45/7/1 112/8/1
f 52/5/1 58/6/1 113/7/1 48/8/1
f 58/5/1 60/6/1 114/7/1 113/8/1
f 60/5/1 62/6/1 115/7/1 114/8/1
f 62/5/1 120/6/1 116/7/1 115/8/1
f 120/17/1 66/18/1 117/19/1 116/20/1
f 66/5/1 65/6/1 118/7/1 117/8/1
f 65/5/1 68/6/1 119/7/1 118/8/1
f 68/9/1 53/10/1 49/11/1 119/12/1
f 61/5/1 121/6/1 120/7/1 62/8/1
f 121/5/1 63/6/1 66/7/1 120/8/1

g mesh_0003
f 24/21/1 71/22/1 5/23/1 2/24/1

g mesh_0004
f 75/25/1 76/26/1 15/27/1 13/28/1

g mesh_0005
f 77/29/1 25/30/1 19/31/1 17/32/1
f 84/33/1 29/34/1 25/35/1 77/36/1
f 91/37/1 33/38/1 29/39/1 84/40/1
f 61/41/1 121/42/1 120/43/1 62/44/1
f 121/41/1 63/42/1 66/43/1 120/44/1

g mesh_0006
f 32/45/1 85/46/1 78/47/1 28/48/1
f 85/49/1 86/50/1 79/51/1 78/52/1
f 36/53/1 92/54/1 85/55/1 32/56/1
f 92/57/1 93/58/1 86/59/1 85/60/1
f 98/61/1 37/62/1 33/63/1 91/64/1
f 40/65/1 99/66/1 92/67/1 36/68/1
f 99/69/1 100/70/1 93/71/1 92/72/1
f 105/73/1 41/74/1 37/75/1 98/76/1

g mesh_0007
f 96/77/1 97/78/1 90/79/1 89/80/1
f 97/81/1 98/82/1 91/83/1 90/84/1
f 103/85/1 104/86/1 97/87/1 96/88/1
f 104/89/1 105/90/1 98/91/1 97/92/1
f 110/93/1 111/94/1 104/95/1 103/96/1
f 111/97/1 112/98/1 105/99/1 104/100/1
f 112/101/1 45/102/1 41/103/1 105/104/1
f 52/105/1 58/106/1 113/107/1 48/108/1

g mesh_0008
f 24/109/1 71/110/1 5/111/1 2/112/1
f 75/109/1 76/110/1 15/111/1 13/112/1
f 77/109/1 25/110/1 19/111/1 17/112/1
f 84/109/1 29/110/1 25/111/1 77/112/1
f 32/109/1 85/110/1 78/111/1 28/112/1
f 85/109/1 86/110/1 79/111/1 78/112/1
f 36/109/1 92/110/1 85/111/1 32/112/1
f 92/109/1 93/110/1 86/111/1 85/112/1
f 96/109/1 97/110/1 90/111/1 89/112/1
f 97/109/1 98/110/1 91/111/1 90/112/1
f 40/109/1 99/110/1 92/111/1 36/112/1
f 99/109/1 100/110/1 93/111/1 92/112/1
f 103/109/1 104/110/1 97/111/1 96/112/1
f 104/109/1 105/110/1 98/111/1 97/112/1
f 105/109/1 41/110/1 37/111/1 98/112/1
f 110/109/1 111/110/1 104/111/1 103/112/1
f 111/109/1 112/110/1 105/111/1 104/112/1
f 112/109/1 45/110/1 41/111/1 105/112/1
f 52/109/1 58/110/1 113/111/1 48/112/1

